#!OML:ASF \\sashay\E\Suitcase\Project 1\Capture day 1\Session 1\Male1.ASF
:FULLY-SPECIFIED
:DEGREES
300
root -0.445386 17.605 -36.8894 5.86029 -8.29884 -0.458759
lowerback 25.2958 -0.903407 8.42425
upperback 8.14307 1.52733 10.5182
thorax -5.04516 0.635196 6.42092
lowerneck -13.3505 -2.65689 -4.95259
upperneck -0.295296 -2.60178 -5.75663
head 2.19537 -1.53183 -1.15792
rclavicle -3.97569e-014 -3.18055e-014
rhumerus -16.5786 -4.90893 -63.1323
rradius 25.3803
rwrist -7.87316
rhand -15.2233 21.3656
rfingers 7.12502
rthumb 10.9494 -8.3289
lclavicle -3.97569e-014 -3.18055e-014
lhumerus -36.5029 -4.99478 94.1917
lradius 47.9139
lwrist 4.32492
lhand -4.72233 40.5595
lfingers 7.12502
lthumb 21.0602 69.4359
rfemur -15.2575 0.0855091 22.8301
rtibia 26.5296
rfoot -16.386 2.17601
rtoes 19.0059
lfemur -22.2979 2.51379 -11.9769
ltibia 43.9131
lfoot -7.90067 6.74087
ltoes -4.51325
301
root -0.460897 17.614 -36.8467 5.81332 -8.02617 -0.562994
lowerback 24.8829 -0.888711 8.59045
upperback 7.7943 1.56209 10.2717
thorax -5.22202 0.656124 6.02609
lowerneck -13.1515 -2.58129 -4.97462
upperneck -0.256316 -2.51294 -5.56011
head 2.17512 -1.47719 -1.08144
rclavicle -7.95139e-015 -6.99722e-014
rhumerus -17.7012 -5.40098 -63.4135
rradius 25.3649
rwrist -7.6063
rhand -15.4436 20.8696
rfingers 7.12502
rthumb 10.7369 -8.83601
lclavicle -7.95139e-015 -6.99722e-014
lhumerus -36.8155 -5.05496 93.9626
lradius 47.8719
lwrist 4.50123
lhand -4.26992 40.5961
lfingers 7.12502
lthumb 21.4947 69.4235
rfemur -14.7522 0.00310381 22.9889
rtibia 26.0927
rfoot -16.3848 2.10649
rtoes 19.4853
lfemur -22.7619 2.19858 -11.8302
ltibia 44.8506
lfoot -7.38062 6.20567
ltoes -5.14589
302
root -0.480016 17.6143 -36.7958 5.66619 -8.00633 -0.683766
lowerback 24.384 -0.805272 8.52615
upperback 7.70708 1.57701 10.0534
thorax -5.06777 0.669844 5.79446
lowerneck -13.4064 -2.49935 -4.75579
upperneck -0.103886 -2.40233 -5.66202
head 2.27112 -1.43332 -1.15292
rclavicle -1.90833e-014 -9.54166e-015
rhumerus -18.2637 -6.2984 -63.7684
rradius 24.9977
rwrist -7.20708
rhand -15.4171 21.3786
rfingers 7.12502
rthumb 10.7625 -8.32568
lclavicle -1.90833e-014 -9.54166e-015
lhumerus -36.705 -4.97082 93.6945
lradius 47.5044
lwrist 4.43853
lhand -4.95125 39.7613
lfingers 7.12502
lthumb 20.8403 68.662
rfemur -14.1325 0.00652785 23.1713
rtibia 25.6427
rfoot -16.2289 1.98638
rtoes 18.0293
lfemur -23.0194 2.22525 -11.6546
ltibia 45.9186
lfoot -7.26791 5.9743
ltoes -1.15404
303
root -0.503511 17.624 -36.7456 5.55623 -7.94975 -0.835512
lowerback 23.758 -0.662682 8.33835
upperback 7.71906 1.61991 10.0006
thorax -4.74751 0.698411 5.81124
lowerneck -13.0248 -2.53607 -4.51302
upperneck -0.959942 -2.56488 -5.99157
head 1.90442 -1.48993 -1.29
rclavicle -1.27222e-014 6.36111e-015
rhumerus -18.4359 -7.42215 -63.8064
rradius 24.284
rwrist -6.39086
rhand -15.4333 21.6465
rfingers 7.12502
rthumb 10.7468 -8.05864
lclavicle -1.27222e-014 6.36111e-015
lhumerus -36.4557 -4.74022 93.6422
lradius 47.3491
lwrist 4.49551
lhand -4.41628 40.0265
lfingers 7.12502
lthumb 21.3542 68.8699
rfemur -13.5013 0.0518687 23.3823
rtibia 25.1648
rfoot -16.2768 2.03575
rtoes 18.5333
lfemur -23.3871 2.36206 -11.4811
ltibia 46.8871
lfoot -6.48703 5.76996
ltoes -1.48863
304
root -0.521211 17.629 -36.707 5.6061 -7.72617 -0.960151
lowerback 23.115 -0.581942 8.29737
upperback 7.65006 1.62603 9.89781
thorax -4.49896 0.709319 5.70101
lowerneck -13.6165 -2.55975 -4.50579
upperneck -0.827736 -2.54174 -6.08679
head 2.05535 -1.49592 -1.3353
rclavicle 1.59028e-015 -3.18055e-014
rhumerus -18.8432 -7.61443 -64.0054
rradius 24.1174
rwrist -6.62955
rhand -15.3625 21.5543
rfingers 7.12502
rthumb 10.8151 -8.14722
lclavicle 1.59028e-015 -3.18055e-014
lhumerus -36.122 -4.61445 93.5362
lradius 47.1426
lwrist 4.48671
lhand -4.14125 40.722
lfingers 7.12502
lthumb 21.6183 69.5352
rfemur -13.1662 -0.110433 23.5883
rtibia 24.7496
rfoot -16.3351 1.90949
rtoes 17.4935
lfemur -24.0445 2.15499 -11.3261
ltibia 47.8898
lfoot -5.68333 5.40163
ltoes 2.4026
305
root -0.541184 17.63 -36.655 5.44323 -7.79341 -1.09243
lowerback 22.945 -0.486568 8.26291
upperback 7.39741 1.73906 9.67596
thorax -4.69391 0.764262 5.43776
lowerneck -13.8262 -2.45168 -4.97752
upperneck -0.354439 -2.28895 -5.52164
head 2.26673 -1.36871 -1.06569
rclavicle 1.59028e-015 -4.77083e-014
rhumerus -19.6613 -8.30056 -64.1815
rradius 23.8259
rwrist -6.41649
rhand -15.4321 21.3663
rfingers 7.12502
rthumb 10.748 -8.3387
lclavicle 1.59028e-015 -4.77083e-014
lhumerus -36.3763 -4.5864 93.3077
lradius 46.9879
lwrist 4.47022
lhand -3.85628 40.2214
lfingers 7.12502
lthumb 21.892 69.0028
rfemur -12.4915 -0.0430291 23.7585
rtibia 24.2874
rfoot -16.234 1.98409
rtoes 18.5064
lfemur -24.2797 2.22716 -11.1634
ltibia 48.8459
lfoot -5.52256 5.39292
ltoes 3.15414
306
root -0.555702 17.6274 -36.6082 5.31633 -7.66615 -1.21484
lowerback 22.3881 -0.404964 8.16134
upperback 7.42085 1.73278 9.55249
thorax -4.38482 0.769646 5.34569
lowerneck -13.9627 -2.43611 -4.85213
upperneck -0.686086 -2.29897 -5.52119
head 2.177 -1.36387 -1.08518
rclavicle -9.54166e-015 -6.36111e-014
rhumerus -19.8037 -9.12773 -64.3749
rradius 23.3252
rwrist -5.81947
rhand -15.5248 21.1634
rfingers 7.12502
rthumb 10.6586 -8.54623
lclavicle -9.54166e-015 -6.36111e-014
lhumerus -36.0182 -4.45503 93.193
lradius 46.7168
lwrist 4.58868
lhand -4.03517 40.3662
lfingers 7.12502
lthumb 21.7202 69.1677
rfemur -11.9521 -0.203239 23.9334
rtibia 23.8966
rfoot -16.1415 1.90677
rtoes 17.8062
lfemur -24.8844 2.19086 -11.1444
ltibia 49.7562
lfoot -4.26968 5.7716
ltoes 0.871139
307
root -0.578211 17.6318 -36.5568 5.23096 -7.71758 -1.33228
lowerback 22.0591 -0.240647 8.046
upperback 7.25481 1.88725 9.37981
thorax -4.40615 0.847331 5.17186
lowerneck -13.8715 -2.30015 -5.08951
upperneck -0.884875 -2.10683 -5.18776
head 2.09869 -1.24692 -0.919587
rclavicle -2.54444e-014 -9.85972e-014
rhumerus -20.496 -9.60727 -64.4932
rradius 23.0409
rwrist -5.69959
rhand -15.4883 20.9902
rfingers 7.12502
rthumb 10.6937 -8.71768
lclavicle -2.54444e-014 -9.85972e-014
lhumerus -36.1551 -4.37082 92.9888
lradius 46.8167
lwrist 4.76792
lhand -3.73015 40.1601
lfingers 7.12502
lthumb 22.0131 68.9274
rfemur -11.4114 -0.00518078 24.1003
rtibia 23.5251
rfoot -16.4166 1.9514
rtoes 18.5063
lfemur -25.1411 2.12241 -10.9567
ltibia 50.7027
lfoot -4.71284 5.04241
ltoes 1.33962
308
root -0.590812 17.6316 -36.5151 5.13191 -7.58714 -1.44858
lowerback 21.8798 -0.208237 8.03638
upperback 6.94583 1.93709 9.22726
thorax -4.65282 0.869801 4.99358
lowerneck -13.8247 -2.39816 -4.44232
upperneck -0.693386 -2.30567 -6.01186
head 2.14153 -1.38016 -1.31386
rclavicle -3.18055e-014 -2.8625e-014
rhumerus -21.1412 -10.0887 -64.4873
rradius 22.457
rwrist -5.21814
rhand -15.3087 21.7606
rfingers 7.12502
rthumb 10.867 -7.93821
lclavicle -3.18055e-014 -2.8625e-014
lhumerus -36.5264 -3.99713 92.8167
lradius 47.0024
lwrist 4.60298
lhand -3.92025 40.3086
lfingers 7.12502
lthumb 21.8305 69.0972
rfemur -10.951 0.0298659 24.2472
rtibia 23.1995
rfoot -16.2658 1.86835
rtoes 18.3332
lfemur -25.5253 1.96925 -10.8436
ltibia 51.5896
lfoot -4.59368 4.93905
ltoes 4.76905
309
root -0.609909 17.6298 -36.4627 5.21551 -7.40157 -1.54074
lowerback 21.2922 -0.0710688 7.95171
upperback 6.73905 2.03651 9.07561
thorax -4.57988 0.923065 4.84023
lowerneck -13.9328 -2.44501 -5.13396
upperneck -0.441594 -2.25691 -5.19039
head 2.26128 -1.33685 -0.929154
rclavicle -1.59028e-014 -1.46306e-013
rhumerus -21.5794 -10.5588 -64.5835
rradius 21.9009
rwrist -5.05981
rhand -15.6844 21.0173
rfingers 7.12502
rthumb 10.5046 -8.7002
lclavicle -1.59028e-014 -1.46306e-013
lhumerus -36.655 -4.09617 92.7244
lradius 47.0113
lwrist 4.78002
lhand -3.92596 39.9325
lfingers 7.12502
lthumb 21.8251 68.7218
rfemur -10.6185 -0.0254253 24.4319
rtibia 22.8759
rfoot -16.4834 1.42261
rtoes 16.6484
lfemur -26.0677 1.89763 -10.7378
ltibia 52.4508
lfoot -4.80771 4.58799
ltoes 6.60264
310
root -0.622257 17.6287 -36.4192 5.08848 -7.4445 -1.66194
lowerback 20.8522 0.218382 7.82319
upperback 6.64676 2.33048 8.93697
thorax -4.46354 1.07138 4.68086
lowerneck -13.8158 -2.43846 -4.65283
upperneck -0.381114 -2.31718 -5.50611
head 2.2525 -1.37647 -1.11758
rclavicle 7.95139e-015 6.36111e-015
rhumerus -22.2695 -12.2771 -64.3472
rradius 21.3629
rwrist -3.88779
rhand -15.6811 21.8106
rfingers 7.12502
rthumb 10.5078 -7.90673
lclavicle 7.95139e-015 6.36111e-015
lhumerus -36.5673 -4.45803 92.7097
lradius 46.8709
lwrist 4.81954
lhand -3.53823 40.2161
lfingers 7.12502
lthumb 22.1973 68.9616
rfemur -10.1526 0.082825 24.5803
rtibia 22.6308
rfoot -16.5305 1.40887
rtoes 17.439
lfemur -26.1853 1.55905 -10.5909
ltibia 53.2405
lfoot -5.57229 4.18241
ltoes 9.45489
311
root -0.640534 17.6267 -36.3764 5.12744 -7.16262 -1.76861
lowerback 20.516 0.31695 7.83714
upperback 6.51167 2.42446 8.74016
thorax -4.43089 1.12098 4.43014
lowerneck -13.9579 -2.57322 -4.20021
upperneck -0.904863 -2.58752 -5.67419
head 2.09128 -1.50162 -1.26144
rclavicle 3.65764e-014 1.55847e-013
rhumerus -22.5903 -12.8634 -64.5121
rradius 21.0321
rwrist -3.97016
rhand -15.7761 21.3858
rfingers 7.12502
rthumb 10.4162 -8.3362
lclavicle 3.65764e-014 1.55847e-013
lhumerus -36.2899 -4.59879 92.5108
lradius 46.584
lwrist 4.70832
lhand -3.68469 39.3131
lfingers 7.12502
lthumb 22.0567 68.0753
rfemur -9.83 0.120392 24.7735
rtibia 22.338
rfoot -16.6764 1.18755
rtoes 17.135
lfemur -26.847 1.4619 -10.5293
ltibia 53.8558
lfoot -5.48949 3.53808
ltoes 6.58599
